<?xml version="1.0" encoding="iso-8859-1"?>
<!-- Generator: Adobe Illustrator 16.0.0, SVG Export Plug-In . SVG Version: 6.00 Build 0)  -->
<!DOCTYPE svg PUBLIC "-//W3C//DTD SVG 1.1//EN" "http://www.w3.org/Graphics/SVG/1.1/DTD/svg11.dtd">
<svg xmlns="http://www.w3.org/2000/svg" xmlns:xlink="http://www.w3.org/1999/xlink" version="1.1" id="Capa_1" x="0px" y="0px" width="512px" height="512px" viewBox="0 0 636.964 636.964" style="enable-background:new 0 0 636.964 636.964;" xml:space="preserve">
<g>
	<g>
		<g>
			<path d="M522.828,465.317c-48.7,0-88.221-39.511-88.221-88.211c0-26.14,11.417-49.546,29.504-65.708l22.211,51.52     c4.201,9.734,8.674,10.571,9.744,10.609h0.233h16.668c8.966,0,5.893-9.092,4.706-11.941l-28.483-66.029     c10.387-4.283,21.754-6.695,33.667-6.695c48.71,0,88.239,39.506,88.239,88.245C611.067,425.806,571.528,465.317,522.828,465.317     L522.828,465.317z M430.522,241.532L306.355,350.597c0,0.02,0,0.02,0,0.02c-14.582,12.797-21.681-1.041-21.787-1.265     L231.817,244.62l0,0c-4.678-9.321,4.084-10.576,8.027-10.683h178.483c0,0,12.272-0.122,13.498,2.655v0.024     C432.604,238.425,432.74,239.592,430.522,241.532L430.522,241.532z M254.84,371.116l-26.767-2.218     c-1.434-35.066-18.617-65.985-44.737-85.93l10.804-18.341c9.341-15.865,17.495,0.01,17.495,0.01l0,0     c17.635,34.653,36.335,71.393,47.251,92.923C258.886,357.56,266.184,372.04,254.84,371.116L254.84,371.116z M150.9,362.519     c-0.019-0.02-0.019-0.02-0.058-0.02c-13.206-1.069-4.799-16.143-4.342-16.959l22.148-37.648     c17.932,14.115,30.243,35.003,33.058,58.848L150.9,362.519L150.9,362.519z M114.156,465.423     c-48.734,0-88.235-39.52-88.235-88.239c0-48.729,39.521-88.211,88.235-88.211c10.677,0,20.893,2.003,30.374,5.484l-41.606,70.688     c-1.186,2.003-1.663,4.162-1.823,6.302c-0.029,0.213-0.146,0.35-0.155,0.544c-0.063,0.914,0.199,1.712,0.306,2.567     c0.068,0.545,0.039,1.031,0.18,1.575c1.312,5.582,5.893,9.958,11.878,10.464l87.453,7.234     C193.002,434.539,157.206,465.423,114.156,465.423L114.156,465.423z M522.828,259.367c-16.046,0-31.353,3.345-45.238,9.35     l-47.767-110.66c-1.226-2.82-3.365-4.818-5.777-6.346c-2.119-1.463-4.57-2.509-7.352-2.509h-88.59     c-7.391,0-13.415,6.005-13.415,13.415c0,7.391,6.015,13.391,13.415,13.391h67.936c3.307,0.18,10.172,1.386,13.128,8.217     l5.388,12.418l0,0l1.011,2.339c0.982,2.898,1.391,7.458-6.02,7.458h-186.36c-8.533,0-12.569-4.488-14.281-7.288l-1.094-2.203     v-0.029l-5.499-10.872c0,0,0,0,0-0.01l-0.059-0.112l-1.006-1.989l-0.117-0.024l-2.241-4.031     c-0.491-1.273-0.312-3.354,6.472-3.354h25.901c0,0,15.214,1.264,15.632-12.686c0.209-7.191-4.848-14.577-11.621-14.577     c-6.773,0-91.104,0-91.104,0s-14.577-1.697-15.423,13.629c0,6.851,5.684,13.634,13.731,13.634c2.937,0,6.968-0.029,10.862-0.068     c5.101,0.136,13.843,1.201,16.702,6.759l0,0l1.162,2.183c2.869,5.616,7.478,14.665,13.075,25.629     c0.408,0.778,0.827,1.653,1.254,2.451c1.065,2.839,1.872,8.037-2.071,14.767l-23.927,40.648     c-13.911-6.034-29.246-9.428-45.398-9.428C51.122,259.479,0,310.561,0,373.615s51.132,114.146,114.156,114.146     c55.405,0,101.582-39.511,111.958-91.887l57.428,4.765c2.339,0.194,4.507-0.398,6.511-1.265c2.528-0.428,5.047-1.273,7.099-3.092     l139.168-122.247c1.896-1.634,8.713-6.763,11.445-0.389l4.453,10.308c-26.489,20.903-43.546,53.203-43.546,89.572     c0,63.016,51.093,114.127,114.146,114.127c63.015,0,114.146-51.111,114.146-114.127     C636.974,310.474,585.862,259.367,522.828,259.367L522.828,259.367z" fill="#235a9f"/>
		</g>
	</g>
</g>
<g>
</g>
<g>
</g>
<g>
</g>
<g>
</g>
<g>
</g>
<g>
</g>
<g>
</g>
<g>
</g>
<g>
</g>
<g>
</g>
<g>
</g>
<g>
</g>
<g>
</g>
<g>
</g>
<g>
</g>
</svg>
